<?xml version="1.0" encoding="UTF-8"?>
<svg id="Layer_1" data-name="Layer 1" xmlns="http://www.w3.org/2000/svg" viewBox="0 0 15 15">
  <defs>
    <style>
      .cls-1 {
        fill: #6c7140;
      }

      .cls-2 {
        fill: #b5b0d8;
      }
    </style>
  </defs>
  <rect class="cls-2" x="-.09" y="0" width="15.09" height="15" transform="translate(14.91 15) rotate(-180)"/>
  <rect class="cls-1" x="10.92" y="12" width=".99" height=".99"/>
  <rect class="cls-1" x="11.92" y="12.99" width="1" height="1"/>
  <rect class="cls-1" x="12.92" y="12" width=".99" height=".99"/>
  <rect class="cls-1" x="9.98" y="9.99" width=".99" height=".99"/>
  <rect class="cls-1" x="12.96" y="8.99" width=".99" height=".99"/>
  <rect class="cls-1" x="10.92" y="6.98" width=".99" height=".99"/>
  <rect class="cls-1" x="11.93" y="5.98" width=".99" height=".99"/>
  <rect class="cls-1" x="5.91" y="11.99" width=".99" height=".99"/>
  <rect class="cls-1" x="6.91" y="12.99" width="1" height="1"/>
  <rect class="cls-1" x="7.91" y="11.99" width=".99" height=".99"/>
  <rect class="cls-1" x="4.97" y="9.98" width=".99" height=".99"/>
  <rect class="cls-1" x="7.95" y="8.99" width=".99" height=".99"/>
  <rect class="cls-1" x="5.91" y="6.98" width=".99" height=".99"/>
  <rect class="cls-1" x="6.92" y="5.98" width=".99" height=".99"/>
  <rect class="cls-1" x="12.99" y="2.99" width=".99" height=".99"/>
  <rect class="cls-1" x="14" y="3.99" width="1" height="1"/>
  <rect class="cls-1" x="12.05" y=".98" width=".99" height=".99"/>
  <rect class="cls-1" x="7.99" y="2.99" width=".99" height=".99"/>
  <rect class="cls-1" x="8.99" y="3.98" width="1" height="1"/>
  <rect class="cls-1" x="9.99" y="2.99" width=".99" height=".99"/>
  <rect class="cls-1" x="7.04" y=".98" width=".99" height=".99"/>
  <rect class="cls-1" x="10.03" y="-.02" width=".99" height=".99"/>
  <rect class="cls-1" x="10.91" y="14.02" width="1" height="1"/>
  <rect class="cls-1" x="1.89" y="8.98" width=".99" height=".99"/>
  <rect class="cls-1" x="2.89" y="9.97" width="1" height="1"/>
  <rect class="cls-1" x="3.89" y="8.98" width=".99" height=".99"/>
  <rect class="cls-1" x=".94" y="6.97" width=".99" height=".99"/>
  <rect class="cls-1" x="3.93" y="5.97" width=".99" height=".99"/>
  <rect class="cls-1" x="1.89" y="3.96" width=".99" height=".99"/>
  <rect class="cls-1" x="2.89" y="2.97" width=".99" height=".99"/>
  <rect class="cls-1" x="-.09" y="14.01" width="1" height="1"/>
  <rect class="cls-1" x=".91" y="13.01" width=".99" height=".99"/>
  <rect class="cls-1" x=".89" y="2.97" width=".99" height=".99"/>
  <rect class="cls-1" x="2.89" y="14.04" width=".99" height=".99"/>
  <rect class="cls-1" x="3.96" y="-.03" width=".99" height=".99"/>
  <rect class="cls-1" x="4.97" y=".97" width="1" height="1"/>
  <rect class="cls-1" x="3.96" y="11.05" width=".99" height=".99"/>
  <rect class="cls-1" x="-.04" y=".97" width="1" height="1"/>
  <rect class="cls-1" x=".96" y="-.03" width=".99" height=".99"/>
  <rect class="cls-1" x="5.91" y="4.01" width=".99" height=".99"/>
  <rect class="cls-1" x="1.88" y="11" width="1" height="1"/>
</svg>