<?xml version="1.0" encoding="UTF-8"?>
<svg xmlns="http://www.w3.org/2000/svg" viewBox="0 0 15 15">
  <defs>
    <style>
      .cls-1 {
        fill: #6c7140;
      }

      .cls-2 {
        fill: #b5b0d8;
      }
    </style>
  </defs>
  <g id="Layer_4" data-name="Layer 4">
    <rect class="cls-2" x=".05" y="-.02" width="15" height="15" transform="translate(15.1 14.96) rotate(-180)"/>
  </g>
  <g id="Layer_1" data-name="Layer 1">
    <rect class="cls-1" x="1.02" y="10.04" width=".99" height="1.01"/>
    <rect class="cls-1" x=".02" y="11.05" width="1" height="1.99"/>
    <rect class="cls-1" x="1.02" y="13.05" width="1.01" height=".98" transform="translate(3.04 27.09) rotate(-180)"/>
    <rect class="cls-1" x="2.02" y="14.04" width=".99" height="1.01" transform="translate(5.02 29.08) rotate(-180)"/>
    <rect class="cls-1" x="2.02" y="8.04" width=".99" height="2" transform="translate(5.03 18.08) rotate(180)"/>
    <rect class="cls-1" x="3.01" y="7.03" width="1.01" height="1.01" transform="translate(7.02 15.06) rotate(180)"/>
    <rect class="cls-1" x="4" y="5.05" width="1" height="1.98" transform="translate(9.01 12.08) rotate(180)"/>
    <rect class="cls-1" x="3.01" y="4.04" width=".99" height="1.01"/>
    <rect class="cls-1" x="2" y="3.05" width="1" height="1"/>
    <rect class="cls-1" x="5" y="8.06" width="1.02" height="1.98"/>
    <rect class="cls-1" x="4.02" y="10.04" width=".99" height="1.01"/>
    <rect class="cls-1" x="3.01" y="11.05" width="1" height="1.99"/>
    <rect class="cls-1" x="4.02" y="13.05" width=".99" height=".99" transform="translate(9.02 27.1) rotate(-180)"/>
    <rect class="cls-1" x="5.01" y="14.04" width="1" height="1" transform="translate(11.02 29.07) rotate(-180)"/>
    <rect class="cls-1" x="6.01" y="7.05" width=".99" height="1.01" transform="translate(13.02 15.11) rotate(180)"/>
    <rect class="cls-1" x="7.01" y="5.05" width="1" height="1.99" transform="translate(15.02 12.09) rotate(180)"/>
    <rect class="cls-1" x="6.01" y="4.04" width=".99" height="1.01"/>
    <rect class="cls-1" x="8.03" y="8.06" width=".99" height="1.97"/>
    <rect class="cls-1" x="7.02" y="10.04" width=".99" height=".99"/>
    <rect class="cls-1" x="6.02" y="11.04" width="1" height="1.99"/>
    <rect class="cls-1" x="7.02" y="13.04" width=".99" height="1.01" transform="translate(15.03 27.08) rotate(-180)"/>
    <rect class="cls-1" x="8.02" y="14.04" width="1" height="1" transform="translate(17.04 29.08) rotate(-180)"/>
    <rect class="cls-1" x="9.03" y="7.04" width=".99" height="1.01" transform="translate(19.05 15.09) rotate(180)"/>
    <rect class="cls-1" x="10.03" y="5.03" width=".95" height="1.99" transform="translate(21.02 12.06) rotate(180)"/>
    <rect class="cls-1" x="8.99" y="4.08" width=".99" height="1.01"/>
    <rect class="cls-1" x="10.98" y="8.04" width="1.02" height="1.98"/>
    <rect class="cls-1" x="10.03" y="10.02" width=".99" height="1.01"/>
    <rect class="cls-1" x="9.02" y="11.04" width="1" height="1.99"/>
    <rect class="cls-1" x="10.03" y="13.03" width=".99" height="1.01" transform="translate(21.05 27.07) rotate(-180)"/>
    <rect class="cls-1" x="11.02" y="14.04" width="1" height="1" transform="translate(23.05 29.07) rotate(-180)"/>
    <rect class="cls-1" x="11.99" y="7.04" width="1.01" height="1.01" transform="translate(24.99 15.09) rotate(180)"/>
    <rect class="cls-1" x="12.99" y="5.08" width="1.04" height="1.96" transform="translate(27.02 12.13) rotate(180)"/>
    <rect class="cls-1" x="11.99" y="4.08" width=".99" height="1.01"/>
    <rect class="cls-1" x="13" y="10.03" width="1.01" height="1.01"/>
    <rect class="cls-1" x="11.99" y="11.05" width="1" height="1.99"/>
    <rect class="cls-1" x="13" y="13.04" width=".99" height="1.01" transform="translate(26.99 27.09) rotate(-180)"/>
    <rect class="cls-1" x="14" y="14.05" width="1" height="1" transform="translate(28.99 29.09) rotate(-180)"/>
    <rect class="cls-1" x="14.03" y="8.04" width="1.02" height="1.98" transform="translate(29.07 18.06) rotate(180)"/>
    <rect class="cls-1" x="-.04" y="7.13" width=".99" height="1.01" transform="translate(.9 15.27) rotate(180)"/>
    <rect class="cls-1" x=".95" y="5.13" width="1" height="1.99" transform="translate(2.9 12.25) rotate(180)"/>
    <rect class="cls-1" x="-.04" y="4.12" width=".99" height="1.01"/>
    <rect class="cls-1" x="2" y="2.05" width="1.02" height="1" transform="translate(5.02 5.1) rotate(180)"/>
    <rect class="cls-1" x="3.02" y="1.04" width=".99" height="1.01" transform="translate(7.02 3.09) rotate(180)"/>
    <rect class="cls-1" x="5.01" y="2.04" width="1.02" height="2" transform="translate(11.03 6.09) rotate(180)"/>
    <rect class="cls-1" x="6.02" y="1.04" width=".99" height="1.01" transform="translate(13.03 3.08) rotate(180)"/>
    <rect class="cls-1" x="7.98" y="2.09" width="1.02" height="1.99" transform="translate(16.97 6.16) rotate(180)"/>
    <rect class="cls-1" x="9" y="1.08" width=".99" height="1.01" transform="translate(18.98 3.16) rotate(180)"/>
    <rect class="cls-1" x="10.98" y="2.08" width="1.02" height="2" transform="translate(22.99 6.16) rotate(180)"/>
    <rect class="cls-1" x="12" y="1.08" width=".99" height="1.01" transform="translate(24.99 3.16) rotate(180)"/>
    <rect class="cls-1" x="14.03" y="2.09" width="1.02" height="1.94" transform="translate(29.07 6.12) rotate(180)"/>
    <rect class="cls-1" x="-.04" y="1.12" width=".99" height="1.01" transform="translate(.92 3.24) rotate(180)"/>
    <rect class="cls-1" x="4.05" y="-.04" width=".99" height="1.01" transform="translate(9.09 .92) rotate(180)"/>
    <rect class="cls-1" x="7.06" y="-.05" width=".99" height="1.01" transform="translate(15.1 .91) rotate(180)"/>
    <rect class="cls-1" x="10.03" y="0" width=".99" height="1.01" transform="translate(21.04 1) rotate(180)"/>
    <rect class="cls-1" x="13.04" y="0" width=".99" height="1.01" transform="translate(27.06 .99) rotate(180)"/>
    <rect class="cls-1" x="1" y="-.12" width=".99" height="1.16" transform="translate(2.98 .92) rotate(180)"/>
  </g>
</svg>