<?xml version="1.0" encoding="UTF-8"?>
<svg xmlns="http://www.w3.org/2000/svg" viewBox="0 0 15 15">
  <defs>
    <style>
      .cls-1 {
        fill: #6c7140;
      }

      .cls-2 {
        fill: #b5b0d8;
      }
    </style>
  </defs>
  <g id="Layer_4" data-name="Layer 4">
    <rect class="cls-1" x="-.03" y="0" width="15.04" height="15.08" transform="translate(14.99 15.07) rotate(-180)"/>
  </g>
  <g id="Layer_1" data-name="Layer 1">
    <rect class="cls-2" x="-.02" y="3.06" width="1" height=".99" transform="translate(.95 7.1) rotate(-180)"/>
    <rect class="cls-2" x=".97" y="5.06" width="1" height=".99" transform="translate(2.93 11.12) rotate(-180)"/>
    <rect class="cls-2" x="2.99" y="5" width="1" height=".99" transform="translate(6.97 10.98) rotate(-180)"/>
    <rect class="cls-2" x="2.99" y="4" width="1" height=".99" transform="translate(6.97 9) rotate(-180)"/>
    <rect class="cls-2" x=".97" y="6.06" width="1" height=".99" transform="translate(2.93 13.11) rotate(-180)"/>
    <rect class="cls-2" x="2.99" y="6.98" width="1" height="1" transform="translate(6.97 14.96) rotate(-180)"/>
    <rect class="cls-2" x="3.99" y="6.98" width="1" height="1.01" transform="translate(8.97 14.96) rotate(-180)"/>
    <rect class="cls-2" x="3.99" y="5.98" width="1" height="1" transform="translate(8.97 12.95) rotate(-180)"/>
    <rect class="cls-2" x="3.99" y="7.99" width="1" height=".99" transform="translate(8.97 16.97) rotate(-180)"/>
    <rect class="cls-2" x=".97" y="7.99" width="1" height="1.05" transform="translate(2.93 17.04) rotate(-180)"/>
    <rect class="cls-2" x=".97" y="9" width="1" height=".99" transform="translate(2.93 18.99) rotate(-180)"/>
    <rect class="cls-2" x="4.99" y="13.04" width="1.19" height=".94"/>
    <rect class="cls-2" x="4.99" y="13.91" width="1" height="1.11"/>
    <rect class="cls-2" x="2.99" y="11.05" width="1" height=".99"/>
    <rect class="cls-2" x="2.99" y="12.04" width="1" height=".99"/>
    <rect class="cls-2" x="2.99" y="10.03" width="1" height="1.05"/>
    <rect class="cls-2" x=".98" y="12.98" width="1" height="1.06"/>
    <rect class="cls-2" x=".98" y="12.04" width="1" height=".99"/>
    <rect class="cls-2" x="1.97" y="14.03" width="1" height=".99"/>
    <rect class="cls-2" x="3.98" y="2.04" width="1" height=".99"/>
    <rect class="cls-2" x="3.98" y="3.03" width="1" height=".99"/>
    <rect class="cls-2" x=".99" y=".07" width="1" height=".99"/>
    <rect class="cls-2" x="-.02" y="1.06" width="1" height=".99"/>
    <rect class="cls-2" x="2" y="1.99" width="1" height=".99"/>
    <rect class="cls-2" x="2.97" y=".05" width="1" height=".99"/>
    <rect class="cls-2" x="0" y="9.98" width="1" height=".99" transform="translate(.99 20.96) rotate(-180)"/>
    <rect class="cls-2" x="5.99" y="5" width="1" height=".99" transform="translate(12.98 11) rotate(-180)"/>
    <rect class="cls-2" x="8.01" y="4.94" width="1" height=".99" transform="translate(17.02 10.86) rotate(-180)"/>
    <rect class="cls-2" x="8.01" y="3.95" width="1" height=".99" transform="translate(17.02 8.88) rotate(-180)"/>
    <rect class="cls-2" x="5.99" y="6" width="1" height=".99" transform="translate(12.98 12.99) rotate(-180)"/>
    <rect class="cls-2" x="8.01" y="6.92" width="1" height="1" transform="translate(17.02 14.84) rotate(-180)"/>
    <rect class="cls-2" x="9.01" y="6.92" width="1" height="1.01" transform="translate(19.03 14.84) rotate(-180)"/>
    <rect class="cls-2" x="9.01" y="5.92" width="1" height="1" transform="translate(19.03 12.83) rotate(-180)"/>
    <rect class="cls-2" x="9.01" y="7.93" width="1" height=".99" transform="translate(19.03 16.85) rotate(-180)"/>
    <rect class="cls-2" x="5.99" y="7.93" width="1" height="1.25" transform="translate(12.98 17.12) rotate(-180)"/>
    <rect class="cls-2" x="5.99" y="8.94" width="1" height=".99" transform="translate(12.98 18.87) rotate(-180)"/>
    <rect class="cls-2" x="10.02" y="12.98" width="1.95" height="2.02"/>
    <rect class="cls-2" x="10.02" y="13.97" width="1" height=".99"/>
    <rect class="cls-2" x="8.01" y="10.99" width="1" height=".99"/>
    <rect class="cls-2" x="8.01" y="11.98" width="1" height=".99"/>
    <rect class="cls-2" x="8.01" y="9.97" width="1" height="1.24"/>
    <rect class="cls-2" x="6" y="12.99" width="1" height=".99"/>
    <rect class="cls-2" x="6" y="11.98" width="1" height="1.13"/>
    <rect class="cls-2" x="6.99" y="13.97" width="1" height="1.05"/>
    <rect class="cls-2" x="9.01" y="1.98" width="1" height=".99"/>
    <rect class="cls-2" x="9.01" y="2.97" width="1" height=".99"/>
    <rect class="cls-2" x="6.02" y="0" width="1" height=".99"/>
    <rect class="cls-2" x="5.01" y="1" width="1" height=".99"/>
    <rect class="cls-2" x="7.02" y="1.93" width="1" height=".99"/>
    <rect class="cls-2" x="7.99" y="0" width="1" height=".99"/>
    <rect class="cls-2" x="5.02" y="9.92" width="1" height=".99" transform="translate(11.04 20.84) rotate(-180)"/>
    <rect class="cls-2" x="10.97" y=".01" width="1" height=".99" transform="translate(22.94 1.01) rotate(-180)"/>
    <rect class="cls-2" x="10.96" y="6.03" width="1" height=".99" transform="translate(22.92 13.04) rotate(-180)"/>
    <rect class="cls-2" x="12.98" y="5.96" width="1" height=".99" transform="translate(26.96 12.91) rotate(-180)"/>
    <rect class="cls-2" x="12.98" y="4.97" width="1" height=".99" transform="translate(26.96 10.93) rotate(-180)"/>
    <rect class="cls-2" x="10.96" y="7.02" width="1" height=".99" transform="translate(22.92 15.04) rotate(-180)"/>
    <rect class="cls-2" x="12.98" y="7.94" width="1" height="1" transform="translate(26.96 16.89) rotate(-180)"/>
    <rect class="cls-2" x="10.96" y="8.96" width="1" height="1.06" transform="translate(22.92 18.97) rotate(-180)"/>
    <rect class="cls-2" x="10.96" y="9.96" width="1" height=".99" transform="translate(22.92 20.92) rotate(-180)"/>
    <rect class="cls-2" x="12.98" y="11.9" width="1" height="1.1"/>
    <rect class="cls-2" x="12.98" y="13" width="1" height=".99"/>
    <rect class="cls-2" x="12.98" y="11" width="1" height=".99"/>
    <rect class="cls-2" x="10.97" y="14.01" width="1" height=".99"/>
    <rect class="cls-2" x="10.97" y="13" width="1" height=".99"/>
    <rect class="cls-2" x="10.97" y="1" width="1" height=".99"/>
    <rect class="cls-2" x="11.99" y="2.96" width="1" height=".99"/>
    <rect class="cls-2" x="12.96" y="1.02" width="1" height=".99"/>
    <rect class="cls-2" x="9.99" y="10.95" width="1" height=".99" transform="translate(20.97 22.88) rotate(-180)"/>
    <rect class="cls-2" x="13.98" y="5.95" width="1" height="1" transform="translate(28.96 12.91) rotate(-180)"/>
  </g>
</svg>