<?xml version="1.0" encoding="UTF-8"?>
<svg xmlns="http://www.w3.org/2000/svg" viewBox="0 0 15 15">
  <defs>
    <style>
      .cls-1 {
        fill: #6c7140;
      }

      .cls-2 {
        fill: #b5b0d8;
      }
    </style>
  </defs>
  <g id="Layer_4" data-name="Layer 4">
    <rect class="cls-1" x="0" y="-.02" width="15" height="15" transform="translate(14.98 14.96) rotate(-180)"/>
  </g>
  <g id="Layer_1" data-name="Layer 1">
    <rect class="cls-2" x=".99" y="10" width=".99" height=".99"/>
    <rect class="cls-2" x="1.99" y="11.01" width="1" height=".99"/>
    <rect class="cls-2" x="2.99" y="10" width=".99" height=".99"/>
    <rect class="cls-2" x="1.99" y="9" width="1" height=".99"/>
    <rect class="cls-2" x="3.99" y="13" width=".99" height=".99"/>
    <rect class="cls-2" x="4.99" y="14" width="1" height="1"/>
    <rect class="cls-2" x="5.99" y="13" width=".99" height=".99"/>
    <rect class="cls-2" x="4.99" y="11.01" width="1" height=".99"/>
    <rect class="cls-2" x=".99" y="13" width="1" height=".99"/>
    <rect class="cls-2" x="2" y="13.99" width=".99" height="1"/>
    <rect class="cls-2" x="10.01" y="11.01" width=".96" height=".99" transform="translate(20.98 23.01) rotate(180)"/>
    <rect class="cls-2" x="9" y="10" width="1" height=".99" transform="translate(19.01 21) rotate(180)"/>
    <rect class="cls-2" x="8.01" y="11" width=".99" height=".99" transform="translate(17.01 23) rotate(180)"/>
    <rect class="cls-2" x="9" y="12" width="1.02" height=".99" transform="translate(19.01 25) rotate(180)"/>
    <rect class="cls-2" x="6.99" y="8" width="1.02" height=".99" transform="translate(15 16.99) rotate(180)"/>
    <rect class="cls-2" x="5.99" y="6.99" width="1" height="1" transform="translate(12.97 14.97) rotate(180)"/>
    <rect class="cls-2" x="4.99" y="8" width=".99" height=".99" transform="translate(10.98 16.99) rotate(180)"/>
    <rect class="cls-2" x="5.98" y="10" width="1" height=".99" transform="translate(12.97 21) rotate(180)"/>
    <rect class="cls-2" x="10.01" y="7.99" width=".96" height=".99" transform="translate(20.98 16.98) rotate(180)"/>
    <rect class="cls-2" x="9" y="6.97" width="1" height="1.02" transform="translate(19.01 14.96) rotate(180)"/>
    <rect class="cls-2" x="9" y="3.93" width=".99" height=".99" transform="translate(18.99 8.86) rotate(-180)"/>
    <rect class="cls-2" x="8" y="2.94" width="1" height=".99" transform="translate(16.99 6.88) rotate(-180)"/>
    <rect class="cls-2" x="7" y="3.93" width=".99" height=".99" transform="translate(14.99 8.86) rotate(-180)"/>
    <rect class="cls-2" x="8" y="4.92" width="1" height=".99" transform="translate(17 10.84) rotate(-180)"/>
    <rect class="cls-2" x="5.99" y="1.01" width=".99" height=".99" transform="translate(12.98 3.01) rotate(-180)"/>
    <rect class="cls-2" x="4.99" y="0" width="1" height="1.01" transform="translate(10.98 1.01) rotate(-180)"/>
    <rect class="cls-2" x="4" y="1.01" width=".99" height=".99" transform="translate(8.99 3.01) rotate(-180)"/>
    <rect class="cls-2" x="4.99" y="2.99" width="1" height=".99" transform="translate(10.98 6.97) rotate(-180)"/>
    <rect class="cls-2" x="9" y="1.01" width="1.02" height=".99" transform="translate(19.01 3.01) rotate(-180)"/>
    <rect class="cls-2" x="7.99" y="-.05" width="1" height=".99" transform="translate(16.99 .89) rotate(-180)"/>
    <rect class="cls-2" x="0" y="2.99" width=".99" height=".99"/>
    <rect class="cls-2" x="1" y="3.98" width="1" height=".99"/>
    <rect class="cls-2" x="2.01" y="2.99" width=".99" height=".99"/>
    <rect class="cls-2" x="1" y="2" width="1" height=".99"/>
    <rect class="cls-2" x="2.99" y="5.98" width=".99" height=".99"/>
    <rect class="cls-2" x="3.99" y="6.98" width="1" height="1"/>
    <rect class="cls-2" x="4.99" y="5.98" width=".99" height=".99"/>
    <rect class="cls-2" x="3.98" y="3.99" width="1" height=".99"/>
    <rect class="cls-2" x="0" y="6" width="1" height=".99"/>
    <rect class="cls-2" x=".99" y="6.99" width="1" height=".99"/>
    <rect class="cls-2" x="8.99" y="13.99" width="1" height="1"/>
    <rect class="cls-2" x="12.94" y="0" width=".99" height=".99"/>
    <rect class="cls-2" x="13.94" y=".99" width="1" height=".99"/>
    <rect class="cls-2" x="10.01" y="0" width=".96" height="1"/>
    <rect class="cls-2" x="10.97" y="1.01" width="1" height=".99"/>
    <rect class="cls-2" x="10.97" y="3.99" width="1" height="1.01"/>
    <rect class="cls-2" x="11.97" y="5" width="1" height=".98"/>
    <rect class="cls-2" x="12.98" y="3.99" width="1.03" height="1.02"/>
    <rect class="cls-2" x="11.98" y="3" width="1" height=".99"/>
    <rect class="cls-2" x="14.01" y="6.99" width="1" height=".99"/>
    <rect class="cls-2" x="10.97" y="6.99" width="1" height="1"/>
    <rect class="cls-2" x="11.98" y="7.99" width=".99" height=".99"/>
    <rect class="cls-2" x="2" y=".02" width="1" height=".99"/>
    <rect class="cls-2" x="10.95" y="13" width=".99" height=".99"/>
    <rect class="cls-2" x="11.95" y="13.99" width="1" height="1"/>
    <rect class="cls-2" x="12.95" y="13" width=".99" height=".99"/>
    <rect class="cls-2" x="11.97" y="11" width="1" height=".99"/>
    <rect class="cls-2" x="12.98" y="10" width="1" height=".99" transform="translate(26.96 20.99) rotate(180)"/>
    <rect class="cls-2" x="14.01" y="11.01" width="1" height=".99"/>
  </g>
</svg>