<?xml version="1.0" encoding="UTF-8"?>
<svg id="Layer_1" data-name="Layer 1" xmlns="http://www.w3.org/2000/svg" viewBox="0 0 15 15">
  <defs>
    <style>
      .cls-1 {
        fill: #6c7140;
      }

      .cls-2 {
        fill: #b5b0d8;
      }
    </style>
  </defs>
  <rect class="cls-1" x="0" y="-.05" width="15" height="15" transform="translate(15 14.9) rotate(-180)"/>
  <rect class="cls-2" x="10.96" y="11.98" width=".99" height=".99"/>
  <rect class="cls-2" x="11.96" y="12.98" width="1" height="1"/>
  <rect class="cls-2" x="12.96" y="11.98" width=".99" height=".99"/>
  <rect class="cls-2" x="10.02" y="9.97" width=".99" height=".99"/>
  <rect class="cls-2" x="13" y="8.98" width=".99" height=".99"/>
  <rect class="cls-2" x="10.96" y="6.97" width=".99" height=".99"/>
  <rect class="cls-2" x="11.97" y="5.97" width=".99" height=".99"/>
  <rect class="cls-2" x="5.95" y="11.98" width=".99" height=".99"/>
  <rect class="cls-2" x="6.96" y="12.98" width="1" height="1"/>
  <rect class="cls-2" x="7.96" y="11.98" width=".99" height=".99"/>
  <rect class="cls-2" x="5.01" y="9.97" width=".99" height=".99"/>
  <rect class="cls-2" x="7.99" y="8.97" width=".99" height=".99"/>
  <rect class="cls-2" x="5.95" y="6.97" width=".99" height=".99"/>
  <rect class="cls-2" x="6.96" y="5.97" width=".99" height=".99"/>
  <rect class="cls-2" x="13.04" y="2.98" width=".99" height=".99"/>
  <rect class="cls-2" x="14.04" y="3.97" width="1" height="1"/>
  <rect class="cls-2" x="12.1" y=".97" width=".99" height=".99"/>
  <rect class="cls-2" x="8.03" y="2.98" width=".99" height=".99"/>
  <rect class="cls-2" x="9.03" y="3.97" width="1" height="1"/>
  <rect class="cls-2" x="10.03" y="2.98" width=".99" height=".99"/>
  <rect class="cls-2" x="7.09" y=".97" width=".99" height=".99"/>
  <rect class="cls-2" x="10.07" y="-.03" width=".99" height=".99"/>
  <rect class="cls-2" x="10.96" y="14" width="1" height="1"/>
  <rect class="cls-2" x="1.93" y="8.97" width=".99" height=".99"/>
  <rect class="cls-2" x="2.93" y="9.96" width="1" height="1"/>
  <rect class="cls-2" x="3.93" y="8.97" width=".99" height=".99"/>
  <rect class="cls-2" x=".99" y="6.96" width=".99" height=".99"/>
  <rect class="cls-2" x="3.97" y="5.96" width=".99" height=".99"/>
  <rect class="cls-2" x="1.93" y="3.95" width=".99" height=".99"/>
  <rect class="cls-2" x="2.94" y="2.95" width=".99" height=".99"/>
  <rect class="cls-2" x="-.04" y="13.99" width="1" height="1"/>
  <rect class="cls-2" x=".96" y="13" width=".99" height=".99"/>
  <rect class="cls-2" x=".93" y="2.95" width=".99" height=".99"/>
  <rect class="cls-2" x="2.93" y="14.03" width=".99" height=".99"/>
  <rect class="cls-2" x="4.01" y="-.04" width=".99" height=".99"/>
  <rect class="cls-2" x="5.01" y=".96" width="1" height="1"/>
  <rect class="cls-2" x="4" y="11.04" width=".99" height=".99"/>
  <rect class="cls-2" x="0" y=".95" width="1" height="1"/>
  <rect class="cls-2" x="1" y="-.04" width=".99" height=".99"/>
  <rect class="cls-2" x="5.95" y="4" width=".99" height=".99"/>
  <rect class="cls-2" x="1.92" y="10.99" width="1" height="1"/>
</svg>